<mxfile host="Electron" agent="Mozilla/5.0 (Windows NT 10.0; Win64; x64) AppleWebKit/537.36 (KHTML, like Gecko) draw.io/26.0.9 Chrome/128.0.6613.186 Electron/32.2.5 Safari/537.36" version="26.0.9">
  <diagram id="C5RBs43oDa-KdzZeNtuy" name="Page-1">
    <mxGraphModel dx="1098" dy="868" grid="1" gridSize="10" guides="1" tooltips="1" connect="1" arrows="1" fold="1" page="1" pageScale="1" pageWidth="827" pageHeight="1169" math="0" shadow="0">
      <root>
        <mxCell id="WIyWlLk6GJQsqaUBKTNV-0" />
        <mxCell id="WIyWlLk6GJQsqaUBKTNV-1" parent="WIyWlLk6GJQsqaUBKTNV-0" />
        <mxCell id="NaSLzc_MdSbEd8YveF3c-0" value="" style="edgeStyle=orthogonalEdgeStyle;rounded=0;orthogonalLoop=1;jettySize=auto;html=1;" edge="1" parent="WIyWlLk6GJQsqaUBKTNV-1" source="NaSLzc_MdSbEd8YveF3c-1" target="NaSLzc_MdSbEd8YveF3c-3">
          <mxGeometry relative="1" as="geometry" />
        </mxCell>
        <mxCell id="NaSLzc_MdSbEd8YveF3c-1" value="Start (Thêm sản phẩm vào đơn hàng)" style="strokeWidth=2;html=1;shape=mxgraph.flowchart.start_1;whiteSpace=wrap;" vertex="1" parent="WIyWlLk6GJQsqaUBKTNV-1">
          <mxGeometry x="780" y="370" width="130" height="80" as="geometry" />
        </mxCell>
        <mxCell id="NaSLzc_MdSbEd8YveF3c-2" value="" style="edgeStyle=orthogonalEdgeStyle;rounded=0;orthogonalLoop=1;jettySize=auto;html=1;" edge="1" parent="WIyWlLk6GJQsqaUBKTNV-1" source="NaSLzc_MdSbEd8YveF3c-3">
          <mxGeometry relative="1" as="geometry">
            <mxPoint x="970" y="565" as="targetPoint" />
          </mxGeometry>
        </mxCell>
        <mxCell id="NaSLzc_MdSbEd8YveF3c-3" value="Truyền thông tin sản phẩm, thông tin người dùng" style="rounded=1;whiteSpace=wrap;html=1;absoluteArcSize=1;arcSize=14;strokeWidth=2;" vertex="1" parent="WIyWlLk6GJQsqaUBKTNV-1">
          <mxGeometry x="785" y="530" width="120" height="70" as="geometry" />
        </mxCell>
        <mxCell id="NaSLzc_MdSbEd8YveF3c-4" value="" style="edgeStyle=orthogonalEdgeStyle;rounded=0;orthogonalLoop=1;jettySize=auto;html=1;" edge="1" parent="WIyWlLk6GJQsqaUBKTNV-1" source="NaSLzc_MdSbEd8YveF3c-8" target="NaSLzc_MdSbEd8YveF3c-10">
          <mxGeometry relative="1" as="geometry">
            <Array as="points">
              <mxPoint x="1035" y="710" />
            </Array>
          </mxGeometry>
        </mxCell>
        <mxCell id="NaSLzc_MdSbEd8YveF3c-5" value="Yes" style="edgeLabel;html=1;align=center;verticalAlign=middle;resizable=0;points=[];" vertex="1" connectable="0" parent="NaSLzc_MdSbEd8YveF3c-4">
          <mxGeometry x="0.0444" y="-1" relative="1" as="geometry">
            <mxPoint as="offset" />
          </mxGeometry>
        </mxCell>
        <mxCell id="NaSLzc_MdSbEd8YveF3c-6" value="" style="edgeStyle=orthogonalEdgeStyle;rounded=0;orthogonalLoop=1;jettySize=auto;html=1;" edge="1" parent="WIyWlLk6GJQsqaUBKTNV-1" source="NaSLzc_MdSbEd8YveF3c-8" target="NaSLzc_MdSbEd8YveF3c-12">
          <mxGeometry relative="1" as="geometry" />
        </mxCell>
        <mxCell id="NaSLzc_MdSbEd8YveF3c-7" value="No" style="edgeLabel;html=1;align=center;verticalAlign=middle;resizable=0;points=[];" vertex="1" connectable="0" parent="NaSLzc_MdSbEd8YveF3c-6">
          <mxGeometry x="0.0933" relative="1" as="geometry">
            <mxPoint as="offset" />
          </mxGeometry>
        </mxCell>
        <mxCell id="NaSLzc_MdSbEd8YveF3c-8" value="Kiểm tra xem người dùng hiện tại có order (status == PENDING)" style="strokeWidth=2;html=1;shape=mxgraph.flowchart.decision;whiteSpace=wrap;" vertex="1" parent="WIyWlLk6GJQsqaUBKTNV-1">
          <mxGeometry x="970" y="505" width="130" height="120" as="geometry" />
        </mxCell>
        <mxCell id="NaSLzc_MdSbEd8YveF3c-9" style="edgeStyle=orthogonalEdgeStyle;rounded=0;orthogonalLoop=1;jettySize=auto;html=1;" edge="1" parent="WIyWlLk6GJQsqaUBKTNV-1" source="NaSLzc_MdSbEd8YveF3c-10" target="NaSLzc_MdSbEd8YveF3c-15">
          <mxGeometry relative="1" as="geometry" />
        </mxCell>
        <mxCell id="NaSLzc_MdSbEd8YveF3c-10" value="Thêm sản phẩm vào order" style="rounded=1;whiteSpace=wrap;html=1;absoluteArcSize=1;arcSize=14;strokeWidth=2;" vertex="1" parent="WIyWlLk6GJQsqaUBKTNV-1">
          <mxGeometry x="1100" y="670" width="100" height="75" as="geometry" />
        </mxCell>
        <mxCell id="NaSLzc_MdSbEd8YveF3c-11" style="edgeStyle=orthogonalEdgeStyle;rounded=0;orthogonalLoop=1;jettySize=auto;html=1;" edge="1" parent="WIyWlLk6GJQsqaUBKTNV-1" source="NaSLzc_MdSbEd8YveF3c-12" target="NaSLzc_MdSbEd8YveF3c-10">
          <mxGeometry relative="1" as="geometry">
            <Array as="points">
              <mxPoint x="1260" y="710" />
            </Array>
          </mxGeometry>
        </mxCell>
        <mxCell id="NaSLzc_MdSbEd8YveF3c-12" value="Tạo order mới" style="rounded=1;whiteSpace=wrap;html=1;absoluteArcSize=1;arcSize=14;strokeWidth=2;" vertex="1" parent="WIyWlLk6GJQsqaUBKTNV-1">
          <mxGeometry x="1210" y="530" width="100" height="70" as="geometry" />
        </mxCell>
        <mxCell id="NaSLzc_MdSbEd8YveF3c-13" value="End" style="strokeWidth=2;html=1;shape=mxgraph.flowchart.start_1;whiteSpace=wrap;" vertex="1" parent="WIyWlLk6GJQsqaUBKTNV-1">
          <mxGeometry x="1310" y="815" width="100" height="60" as="geometry" />
        </mxCell>
        <mxCell id="NaSLzc_MdSbEd8YveF3c-14" style="edgeStyle=orthogonalEdgeStyle;rounded=0;orthogonalLoop=1;jettySize=auto;html=1;" edge="1" parent="WIyWlLk6GJQsqaUBKTNV-1" source="NaSLzc_MdSbEd8YveF3c-15" target="NaSLzc_MdSbEd8YveF3c-13">
          <mxGeometry relative="1" as="geometry" />
        </mxCell>
        <mxCell id="NaSLzc_MdSbEd8YveF3c-15" value="Trả về thông tin order hiện tại" style="rounded=1;whiteSpace=wrap;html=1;absoluteArcSize=1;arcSize=14;strokeWidth=2;" vertex="1" parent="WIyWlLk6GJQsqaUBKTNV-1">
          <mxGeometry x="1100" y="810" width="100" height="70" as="geometry" />
        </mxCell>
      </root>
    </mxGraphModel>
  </diagram>
</mxfile>
